<svg width="2347" height="469" viewBox="0 0 2347 469" fill="none" xmlns="http://www.w3.org/2000/svg">
<path fill-rule="evenodd" clip-rule="evenodd" d="M-6 256.379L59 233.379C125 209.379 255 162.379 386 103.379C517 44.3787 648 -25.6213 778 9.37872C909 44.3787 1040 186.379 1171 209.379C1301 233.379 1432 139.379 1563 103.379C1693 68.3787 1824 91.3787 1955 103.379C2086 115.379 2216 115.379 2282 115.379H2347V468.379H2282C2216 468.379 2086 468.379 1955 468.379C1824 468.379 1693 468.379 1563 468.379C1432 468.379 1301 468.379 1170 468.379C1040 468.379 909 468.379 778 468.379C648 468.379 517 468.379 386 468.379C255 468.379 125 468.379 59 468.379H-6V256.379Z" fill="#292901"/>
</svg>
